<svg width="6187" height="1277" xmlns="http://www.w3.org/2000/svg" xmlns:xlink="http://www.w3.org/1999/xlink" xml:space="preserve" overflow="hidden"><g transform="translate(-3518 -4700)"><path d="M4446 5610.04C4446 5575.22 4474.22 5547 4509.04 5547L5741.96 5547C5776.78 5547 5805 5575.22 5805 5610.04L5805 5902.96C5805 5937.78 5776.78 5966 5741.96 5966L4509.04 5966C4474.22 5966 4446 5937.78 4446 5902.96Z" fill="#F3E5F5" fill-rule="evenodd"/><text font-family="Arial,Arial_MSFontService,sans-serif" font-weight="400" font-size="92" transform="matrix(1 0 0 1 4497.3 5786)">•</text><text font-family="Aptos,Aptos_MSFontService,sans-serif" font-weight="700" font-size="92" transform="matrix(1 0 0 1 4621.05 5786)">Multi</text><text font-family="Aptos,Aptos_MSFontService,sans-serif" font-weight="700" font-size="92" transform="matrix(1 0 0 1 4833.6 5786)">-</text><text font-family="Aptos,Aptos_MSFontService,sans-serif" font-weight="700" font-size="92" transform="matrix(1 0 0 1 4864.54 5786)">camera ChArUco </text><text font-family="Aptos,Aptos_MSFontService,sans-serif" font-weight="700" font-size="92" transform="matrix(1 0 0 1 4621.05 5896)">Extrinsic Calibration</text><path d="M4446 5147.94C4446 5112.63 4474.63 5084 4509.94 5084L5741.06 5084C5776.37 5084 5805 5112.63 5805 5147.94L5805 5445.06C5805 5480.37 5776.37 5509 5741.06 5509L4509.94 5509C4474.63 5509 4446 5480.37 4446 5445.06Z" fill="#F3E5F5" fill-rule="evenodd"/><text font-family="Arial,Arial_MSFontService,sans-serif" font-weight="400" font-size="92" transform="matrix(1 0 0 1 4497.57 5219)">•</text><text font-family="Univers,Univers_MSFontService,sans-serif" font-weight="700" font-size="92" transform="matrix(1 0 0 1 4621.32 5219)">Master</text><text font-family="Univers,Univers_MSFontService,sans-serif" font-weight="700" font-size="92" transform="matrix(1 0 0 1 4926.69 5219)">-</text><text font-family="Univers,Univers_MSFontService,sans-serif" font-weight="700" font-size="92" transform="matrix(1 0 0 1 4957.05 5219)">Slave Network </text><text font-family="Univers,Univers_MSFontService,sans-serif" font-weight="700" font-size="92" transform="matrix(1 0 0 1 4621.32 5329)">Clock Synchronization</text><text font-family="Arial,Arial_MSFontService,sans-serif" font-weight="400" font-size="92" transform="matrix(1 0 0 1 4497.57 5439)">•</text><text font-family="Univers,Univers_MSFontService,sans-serif" font-weight="700" font-size="92" transform="matrix(1 0 0 1 4621.32 5439)">Visual Anchor Alignment</text><text font-family="Orbitron Black,Orbitron Black_MSFontService,sans-serif" font-weight="900" font-size="183" transform="matrix(1 0 0 1 3628.89 4932)">Data Annotation</text><rect x="4446" y="5002" width="1359" height="132" fill="#E3C2E8"/><text font-family="Univers,Univers_MSFontService,sans-serif" font-weight="700" font-size="92" transform="matrix(1 0 0 1 4796.93 5101)">Temporal Sync</text><rect x="4446" y="5541" width="1359" height="132" fill="#E3C2E8"/><text font-family="Univers,Univers_MSFontService,sans-serif" font-weight="700" font-size="92" transform="matrix(1 0 0 1 4850.78 5640)">Spatial Calib</text><path d="M3648 5090.94C3648 5055.63 3676.63 5027 3711.94 5027L4221.06 5027C4256.37 5027 4285 5055.63 4285 5090.94L4285 5388.06C4285 5423.37 4256.37 5452 4221.06 5452L3711.94 5452C3676.63 5452 3648 5423.37 3648 5388.06Z" fill="#E3F2FD" fill-rule="evenodd"/><text font-family="Univers,Univers_MSFontService,sans-serif" font-weight="700" font-size="92" transform="matrix(1 0 0 1 3720.68 5273)">Ego@25fps</text><text font-family="Univers,Univers_MSFontService,sans-serif" font-weight="700" font-size="92" transform="matrix(1 0 0 1 3723.24 5383)">Exo@30fps</text><rect x="3648" y="5026" width="637" height="132" fill="#B8DEFA"/><text font-family="Univers,Univers_MSFontService,sans-serif" font-weight="700" font-size="92" transform="matrix(1 0 0 1 3755.34 5125)">Raw Data</text><path d="M5966 5147.94C5966 5112.63 5994.63 5084 6029.94 5084L7262.06 5084C7297.37 5084 7326 5112.63 7326 5147.94L7326 5445.06C7326 5480.37 7297.37 5509 7262.06 5509L6029.94 5509C5994.63 5509 5966 5480.37 5966 5445.06Z" fill="#FFF3E0" fill-rule="evenodd"/><text font-family="Arial,Arial_MSFontService,sans-serif" font-weight="400" font-size="92" transform="matrix(1 0 0 1 6018.21 5219)">•</text><text font-family="Univers,Univers_MSFontService,sans-serif" font-weight="700" font-size="92" transform="matrix(1 0 0 1 6141.96 5219)">Custom Multi</text><text font-family="Univers,Univers_MSFontService,sans-serif" font-weight="700" font-size="92" transform="matrix(1 0 0 1 6737.22 5219)">-</text><text font-family="Univers,Univers_MSFontService,sans-serif" font-weight="700" font-size="92" transform="matrix(1 0 0 1 6767.58 5219)">view </text><text font-family="Univers,Univers_MSFontService,sans-serif" font-weight="700" font-size="92" transform="matrix(1 0 0 1 6141.96 5329)">Annotation Suite </text><text font-family="Univers,Univers_MSFontService,sans-serif" font-weight="700" font-size="92" transform="matrix(1 0 0 1 6018.21 5439)">(Multi</text><text font-family="Univers,Univers_MSFontService,sans-serif" font-weight="700" font-size="92" transform="matrix(1 0 0 1 6277.16 5439)">-</text><text font-family="Univers,Univers_MSFontService,sans-serif" font-weight="700" font-size="92" transform="matrix(1 0 0 1 6307.53 5439)">Annotator Consensus)</text><rect x="5966" y="5002" width="1360" height="132" fill="#FFDDA7"/><text font-family="Univers,Univers_MSFontService,sans-serif" font-weight="700" font-size="92" transform="matrix(1 0 0 1 6024.51 5101)">Core Expert Annotation TAS</text><path d="M5966 5677.15C5966 5648.9 5988.9 5626 6017.15 5626L7274.85 5626C7303.1 5626 7326 5648.9 7326 5677.15L7326 5914.85C7326 5943.1 7303.1 5966 7274.85 5966L6017.15 5966C5988.9 5966 5966 5943.1 5966 5914.85Z" fill="#FFF3E0" fill-rule="evenodd"/><text font-family="Arial,Arial_MSFontService,sans-serif" font-weight="400" font-size="92" transform="matrix(1 0 0 1 6014.42 5774)">•</text><text font-family="Univers,Univers_MSFontService,sans-serif" font-weight="700" font-size="92" transform="matrix(1 0 0 1 6138.17 5774)">Occlusion Handling &amp; </text><text font-family="Univers,Univers_MSFontService,sans-serif" font-weight="700" font-size="92" transform="matrix(1 0 0 1 6138.17 5884)">Phase Adjustment</text><rect x="5966" y="5545" width="1360" height="132" fill="#FFDDA7"/><text font-family="Univers,Univers_MSFontService,sans-serif" font-weight="700" font-size="92" transform="matrix(1 0 0 1 6083.81 5644)">View</text><text font-family="Univers,Univers_MSFontService,sans-serif" font-weight="700" font-size="92" transform="matrix(1 0 0 1 6307.82 5644)">-</text><text font-family="Univers,Univers_MSFontService,sans-serif" font-weight="700" font-size="92" transform="matrix(1 0 0 1 6338.18 5644)">Specific Refinement</text><rect x="7565" y="5237" width="1448" height="132" fill="#FFDDA7"/><text font-family="Univers,Univers_MSFontService,sans-serif" font-weight="700" font-size="92" transform="matrix(1 0 0 1 7624.92 5336)">Multi</text><text font-family="Univers,Univers_MSFontService,sans-serif" font-weight="700" font-size="92" transform="matrix(1 0 0 1 7853.52 5336)">-</text><text font-family="Univers,Univers_MSFontService,sans-serif" font-weight="700" font-size="92" transform="matrix(1 0 0 1 7883.88 5336)">task Specific Annotation</text><rect x="7565" y="5008" width="1942" height="147" fill="#FFFFAF"/><text font-family="Univers,Univers_MSFontService,sans-serif" font-weight="700" font-size="92" transform="matrix(1 0 0 1 7645.5 5115)">Validation I (V1): TAS Consistency Check</text><rect x="7565" y="5446" width="2119" height="148" fill="#C2F1C8"/><text font-family="Univers,Univers_MSFontService,sans-serif" font-weight="700" font-size="92" transform="matrix(1 0 0 1 7599.64 5553)">Validation II (V2): Global Cross</text><text font-family="Univers,Univers_MSFontService,sans-serif" font-weight="700" font-size="92" transform="matrix(1 0 0 1 8931.67 5553)">-</text><text font-family="Univers,Univers_MSFontService,sans-serif" font-weight="700" font-size="92" transform="matrix(1 0 0 1 8962.03 5553)">Task Alignment</text><rect x="7558.5" y="5645.5" width="2119" height="321" stroke="#00B050" stroke-width="6.875" stroke-miterlimit="8" fill="#C2F1C8"/><text font-family="Univers,Univers_MSFontService,sans-serif" font-weight="700" font-size="92" transform="matrix(1 0 0 1 7874.82 5838)">Final High</text><text font-family="Univers,Univers_MSFontService,sans-serif" font-weight="700" font-size="92" transform="matrix(1 0 0 1 8312.53 5838)">-</text><text font-family="Univers,Univers_MSFontService,sans-serif" font-weight="700" font-size="92" transform="matrix(1 0 0 1 8342.89 5838)">Fidelity Dataset Output</text><g><g><g><path d="M3660.48 4960.19C3624.42 4960.19 3595.2 4989.41 3595.2 5025.46 3595.2 5061.52 3624.42 5090.74 3660.48 5090.74 3696.53 5090.74 3725.75 5061.52 3725.75 5025.46 3725.75 5025.46 3725.75 5025.46 3725.75 5025.46 3725.76 4989.42 3696.56 4960.2 3660.53 4960.19 3660.51 4960.19 3660.49 4960.19 3660.48 4960.19ZM3667.64 5053.17 3657.71 5053.17 3657.71 5005.75C3656.87 5006.32 3655.98 5006.87 3655.05 5007.4 3654.12 5007.94 3653.16 5008.41 3652.17 5008.83 3651.1 5009.25 3649.98 5009.64 3648.8 5010 3647.63 5010.36 3646.33 5010.71 3644.92 5011.06L3644.92 5003.13C3645.87 5002.86 3646.74 5002.59 3647.52 5002.33 3648.3 5002.06 3649.07 5001.79 3649.83 5001.53 3650.59 5001.22 3651.35 5000.91 3652.11 5000.58 3652.88 5000.26 3653.64 4999.95 3654.4 4999.64 3655.12 4999.26 3655.85 4998.88 3656.59 4998.5 3657.33 4998.12 3658.07 4997.72 3658.79 4997.3 3659.59 4996.88 3660.38 4996.42 3661.16 4995.92 3661.93 4995.42 3662.72 4994.97 3663.53 4994.55L3667.64 4994.55Z"/></g></g></g><g><g><g><path d="M4443.48 4961.19C4407.42 4961.19 4378.2 4990.41 4378.2 5026.46 4378.2 5062.52 4407.42 5091.74 4443.48 5091.74 4479.53 5091.74 4508.75 5062.52 4508.75 5026.46 4508.75 5026.46 4508.75 5026.46 4508.75 5026.46 4508.76 4990.42 4479.56 4961.2 4443.53 4961.19 4443.51 4961.19 4443.49 4961.19 4443.48 4961.19ZM4462.14 5055.73 4424.82 5055.73 4424.82 5050.26C4424.78 5047.96 4425.21 5045.68 4426.07 5043.55 4426.92 5041.55 4428.08 5039.69 4429.52 5038.05 4431.05 5036.32 4432.77 5034.75 4434.63 5033.38 4436.57 5031.93 4438.66 5030.52 4440.91 5029.15 4442.79 5028.03 4444.57 5026.75 4446.24 5025.33 4447.49 5024.26 4448.6 5023.04 4449.55 5021.69 4450.33 5020.57 4450.9 5019.33 4451.24 5018.01 4451.55 5016.66 4451.7 5015.28 4451.69 5013.9 4451.7 5012.69 4451.5 5011.5 4451.12 5010.36 4450.76 5009.26 4450.19 5008.24 4449.44 5007.36 4448.65 5006.47 4447.68 5005.77 4446.58 5005.3 4445.31 5004.77 4443.94 5004.5 4442.56 5004.53 4439.87 5004.52 4437.21 5005.15 4434.8 5006.36 4432.27 5007.64 4429.94 5009.3 4427.9 5011.27L4427.9 5002.36C4429.87 5000.52 4432.24 4999.15 4434.83 4998.37 4437.62 4997.54 4440.51 4997.13 4443.42 4997.16 4445.75 4997.15 4448.06 4997.5 4450.27 4998.2 4452.31 4998.83 4454.21 4999.85 4455.86 5001.19 4457.47 5002.52 4458.76 5004.2 4459.63 5006.1 4460.58 5008.2 4461.05 5010.49 4461.01 5012.8 4461.03 5014.88 4460.78 5016.95 4460.29 5018.96 4459.8 5020.86 4459.01 5022.66 4457.94 5024.29 4456.74 5026.09 4455.31 5027.72 4453.69 5029.14 4451.69 5030.89 4449.55 5032.47 4447.3 5033.88 4445.24 5035.17 4443.41 5036.37 4441.82 5037.47 4440.37 5038.45 4439.01 5039.55 4437.74 5040.75 4436.7 5041.72 4435.84 5042.86 4435.2 5044.12 4434.62 5045.32 4434.32 5046.64 4434.34 5047.97L4462.13 5047.97Z"/></g></g></g><g><g><g><path d="M5963.48 4960.19C5927.42 4960.19 5898.2 4989.41 5898.2 5025.46 5898.19 5061.52 5927.42 5090.74 5963.47 5090.74 5999.52 5090.74 6028.75 5061.52 6028.75 5025.47 6028.75 5025.47 6028.75 5025.46 6028.75 5025.46 6028.77 4989.42 5999.56 4960.2 5963.53 4960.19 5963.51 4960.19 5963.49 4960.19 5963.48 4960.19ZM5980.75 5045.32C5979.54 5047.45 5977.88 5049.29 5975.86 5050.69 5973.69 5052.19 5971.26 5053.3 5968.7 5053.97 5965.9 5054.72 5963.01 5055.09 5960.11 5055.08 5957.18 5055.09 5954.26 5054.83 5951.38 5054.31 5948.97 5053.92 5946.64 5053.14 5944.48 5052L5944.48 5043.2C5946.77 5044.8 5949.33 5045.98 5952.04 5046.69 5954.76 5047.43 5957.57 5047.82 5960.4 5047.83 5961.76 5047.82 5963.11 5047.68 5964.45 5047.43 5965.86 5047.17 5967.22 5046.68 5968.47 5045.97 5969.71 5045.27 5970.77 5044.28 5971.56 5043.09 5972.42 5041.71 5972.84 5040.1 5972.78 5038.47 5972.83 5036.8 5972.43 5035.16 5971.61 5033.7 5970.82 5032.38 5969.7 5031.28 5968.36 5030.51 5966.83 5029.64 5965.18 5029.03 5963.45 5028.71 5961.43 5028.32 5959.37 5028.12 5957.31 5028.14L5952.01 5028.14 5952.01 5020.83 5957.03 5020.83C5958.86 5020.85 5960.69 5020.67 5962.48 5020.32 5964 5020.03 5965.46 5019.46 5966.76 5018.64 5967.93 5017.89 5968.9 5016.86 5969.56 5015.64 5970.26 5014.26 5970.61 5012.73 5970.56 5011.19 5970.62 5009.79 5970.29 5008.4 5969.62 5007.16 5969.03 5006.16 5968.2 5005.32 5967.21 5004.71 5966.24 5004.12 5965.16 5003.7 5964.04 5003.48 5962.95 5003.26 5961.85 5003.14 5960.73 5003.14 5958.34 5003.16 5955.96 5003.51 5953.66 5004.17 5951.26 5004.82 5948.98 5005.86 5946.92 5007.25L5946.92 4999.15C5949.06 4998.02 5951.34 4997.19 5953.7 4996.67 5956.28 4996.11 5958.91 4995.83 5961.55 4995.84 5963.9 4995.84 5966.25 4996.12 5968.54 4996.67 5970.68 4997.17 5972.71 4998.03 5974.56 4999.21 5976.27 5000.31 5977.71 5001.8 5978.75 5003.55 5979.83 5005.44 5980.38 5007.59 5980.32 5009.77 5980.46 5013.19 5979.28 5016.54 5977.04 5019.13 5974.64 5021.68 5971.49 5023.42 5968.05 5024.09 5969.92 5024.28 5971.74 5024.75 5973.47 5025.47 5975.17 5026.16 5976.75 5027.13 5978.12 5028.35 5979.46 5029.53 5980.56 5030.97 5981.35 5032.57 5982.16 5034.23 5982.57 5036.06 5982.55 5037.91 5982.6 5040.49 5981.98 5043.05 5980.75 5045.32Z"/></g></g></g><g><g><g><path d="M7540.56 5022.06C7539.23 5023.98 7537.91 5025.76 7536.62 5027.39 7535.33 5029.02 7533.98 5030.66 7532.57 5032.3L7549.69 5032.3 7549.69 5007.31C7547.9 5010.47 7546.26 5013.23 7544.78 5015.61 7543.3 5017.99 7541.89 5020.14 7540.56 5022.06Z"/><path d="M7547.48 4960.19C7511.42 4960.19 7482.2 4989.41 7482.2 5025.46 7482.19 5061.52 7511.42 5090.74 7547.47 5090.74 7583.52 5090.74 7612.75 5061.52 7612.75 5025.47 7612.75 5025.47 7612.75 5025.47 7612.75 5025.47 7612.77 4989.43 7583.57 4960.2 7547.53 4960.19 7547.51 4960.19 7547.49 4960.19 7547.48 4960.19ZM7567.38 5040.58 7559.56 5040.58 7559.56 5052.85 7549.69 5052.85 7549.69 5040.58 7522.81 5040.58 7522.81 5032.76C7525.47 5029.87 7528.08 5026.83 7530.63 5023.63 7533.18 5020.43 7535.58 5017.19 7537.82 5013.9 7540.06 5010.61 7542.15 5007.34 7544.07 5004.08 7545.99 5000.83 7547.7 4997.68 7549.18 4994.64L7559.56 4994.64 7559.56 5032.3 7567.38 5032.3Z"/></g></g></g><g><g><g><path d="M7547.46 5190.18C7511.41 5190.18 7482.19 5219.4 7482.19 5255.46 7482.19 5291.51 7511.41 5320.73 7547.46 5320.73 7583.52 5320.73 7612.74 5291.51 7612.74 5255.46 7612.76 5219.42 7583.56 5190.2 7547.53 5190.18 7547.51 5190.18 7547.48 5190.18 7547.46 5190.18ZM7566.77 5273.44C7565.44 5275.74 7563.61 5277.7 7561.4 5279.18 7559.06 5280.73 7556.47 5281.85 7553.73 5282.48 7550.78 5283.2 7547.75 5283.55 7544.71 5283.54 7538.44 5283.54 7533.74 5282.74 7530.62 5281.14L7530.62 5272.53C7534.97 5274.95 7539.85 5276.25 7544.83 5276.3 7546.75 5276.31 7548.67 5276.08 7550.54 5275.61 7552.16 5275.21 7553.7 5274.51 7555.07 5273.55 7557.71 5271.71 7559.25 5268.66 7559.15 5265.44 7559.2 5263.8 7558.75 5262.18 7557.87 5260.79 7556.98 5259.49 7555.81 5258.41 7554.44 5257.62 7552.89 5256.74 7551.21 5256.13 7549.46 5255.8 7547.48 5255.41 7545.48 5255.22 7543.46 5255.23 7541.53 5255.23 7537.97 5255.4 7532.79 5255.74L7535.64 5225.28 7565.72 5225.28 7565.72 5232.92 7544.14 5232.92 7542.66 5247.99C7543.19 5247.95 7543.57 5247.92 7543.8 5247.9 7544.03 5247.88 7544.23 5247.87 7544.4 5247.85 7544.58 5247.83 7544.76 5247.82 7544.94 5247.82L7545.91 5247.82C7548.83 5247.81 7551.74 5248.12 7554.59 5248.76 7557.18 5249.31 7559.66 5250.33 7561.89 5251.75 7563.97 5253.11 7565.69 5254.94 7566.92 5257.09 7568.24 5259.53 7568.89 5262.28 7568.81 5265.05 7568.89 5267.98 7568.19 5270.88 7566.77 5273.44Z"/></g></g></g><g><g><g><path d="M7547.46 5391.19C7511.41 5391.19 7482.19 5420.41 7482.19 5456.46 7482.19 5492.52 7511.41 5521.74 7547.46 5521.74 7583.52 5521.74 7612.74 5492.52 7612.74 5456.46 7612.74 5456.46 7612.74 5456.46 7612.74 5456.46 7612.75 5420.42 7583.55 5391.2 7547.52 5391.19 7547.5 5391.19 7547.48 5391.19 7547.46 5391.19ZM7567.12 5472.56C7566.25 5474.91 7564.9 5477.05 7563.16 5478.84 7561.38 5480.64 7559.24 5482.03 7556.88 5482.92 7554.22 5483.93 7551.39 5484.42 7548.55 5484.38 7545.11 5484.49 7541.71 5483.7 7538.67 5482.1 7536.06 5480.65 7533.82 5478.61 7532.14 5476.13 7530.46 5473.6 7529.24 5470.79 7528.55 5467.83 7527.81 5464.78 7527.44 5461.66 7527.44 5458.53 7527.44 5455.87 7527.68 5453.21 7528.15 5450.6 7528.61 5447.97 7529.33 5445.39 7530.29 5442.89 7531.23 5440.45 7532.44 5438.12 7533.91 5435.96 7535.35 5433.83 7537.09 5431.93 7539.08 5430.3 7541.09 5428.66 7543.37 5427.38 7545.81 5426.51 7548.51 5425.56 7551.35 5425.1 7554.2 5425.13 7557.9 5424.99 7561.58 5425.62 7565.03 5426.96L7565.03 5434.84C7561.72 5433.2 7558.07 5432.33 7554.38 5432.33 7551.47 5432.23 7548.6 5432.92 7546.06 5434.33 7543.85 5435.61 7541.97 5437.39 7540.56 5439.52 7539.11 5441.75 7538.07 5444.23 7537.48 5446.83 7536.84 5449.54 7536.51 5452.31 7536.51 5455.1L7536.68 5455.1C7537.36 5453.93 7538.16 5452.84 7539.08 5451.84 7540 5450.85 7541.04 5449.98 7542.19 5449.25 7543.37 5448.5 7544.64 5447.91 7545.98 5447.51 7547.41 5447.08 7548.89 5446.87 7550.38 5446.88 7552.9 5446.85 7555.41 5447.3 7557.77 5448.22 7559.91 5449.06 7561.86 5450.32 7563.5 5451.93 7565.12 5453.53 7566.38 5455.44 7567.21 5457.55 7568.1 5459.79 7568.54 5462.17 7568.52 5464.58 7568.55 5467.3 7568.07 5470.01 7567.12 5472.56Z"/><path d="M7556.25 5456.84C7555.24 5455.92 7554.04 5455.21 7552.74 5454.78 7551.44 5454.35 7550.08 5454.12 7548.72 5454.12 7547.25 5454.13 7545.8 5454.4 7544.44 5454.92 7543.04 5455.45 7541.76 5456.22 7540.64 5457.21 7539.5 5458.22 7538.57 5459.43 7537.9 5460.8 7537.18 5462.27 7536.82 5463.9 7536.84 5465.54 7536.83 5467.05 7537.09 5468.55 7537.61 5469.96 7538.12 5471.35 7538.92 5472.61 7539.94 5473.67 7541 5474.78 7542.28 5475.66 7543.7 5476.24 7545.34 5476.9 7547.08 5477.22 7548.84 5477.18 7550.49 5477.22 7552.12 5476.87 7553.6 5476.15 7554.9 5475.51 7556.05 5474.59 7556.97 5473.47 7557.87 5472.36 7558.56 5471.09 7559 5469.73 7559.45 5468.36 7559.69 5466.92 7559.69 5465.48 7559.73 5463.73 7559.41 5461.99 7558.74 5460.37 7558.17 5459.03 7557.32 5457.83 7556.25 5456.84Z"/></g></g></g></g></svg>