<svg width="3328" height="754" xmlns="http://www.w3.org/2000/svg" xmlns:xlink="http://www.w3.org/1999/xlink" xml:space="preserve" overflow="hidden"><g transform="translate(-947 -3996)"><path d="M1082 4010 4261 4010 4261 4615C4261 4681.82 4206.83 4736 4140 4736L961 4736 961 4131C961 4064.17 1015.18 4010 1082 4010Z" stroke="#FFC000" stroke-width="27.5" stroke-miterlimit="8" fill="#FFF4E5" fill-rule="evenodd"/><text font-family="Orbitron Black,Orbitron Black_MSFontService,sans-serif" font-weight="900" font-size="110" transform="matrix(1 0 0 1 1060.06 4165)">Action Forecasting</text><text font-family="Arial,Arial_MSFontService,sans-serif" font-weight="400" font-size="92" transform="matrix(1 0 0 1 1225.06 4411)">•</text><text font-family="Univers,Univers_MSFontService,sans-serif" font-weight="700" font-size="92" transform="matrix(1 0 0 1 1348.81 4411)">Short</text><text font-family="Univers,Univers_MSFontService,sans-serif" font-weight="700" font-size="92" transform="matrix(1 0 0 1 1593.45 4411)">-</text><text font-family="Univers,Univers_MSFontService,sans-serif" font-weight="700" font-size="92" transform="matrix(1 0 0 1 1623.81 4411)">term Anticipation </text><text font-family="Univers,Univers_MSFontService,sans-serif" font-weight="400" font-size="92" transform="matrix(1 0 0 1 2417.3 4411)">(AF</text><text font-family="Univers,Univers_MSFontService,sans-serif" font-weight="400" font-size="92" transform="matrix(1 0 0 1 2565.11 4411)">-</text><text font-family="Univers,Univers_MSFontService,sans-serif" font-weight="400" font-size="92" transform="matrix(1 0 0 1 2595.48 4411)">S)</text><text font-family="Arial,Arial_MSFontService,sans-serif" font-weight="400" font-size="92" transform="matrix(1 0 0 1 1225.06 4521)">•</text><text font-family="Univers,Univers_MSFontService,sans-serif" font-weight="700" font-size="92" transform="matrix(1 0 0 1 1348.81 4521)">Long</text><text font-family="Univers,Univers_MSFontService,sans-serif" font-weight="700" font-size="92" transform="matrix(1 0 0 1 1568.24 4521)">-</text><text font-family="Univers,Univers_MSFontService,sans-serif" font-weight="700" font-size="92" transform="matrix(1 0 0 1 1598.6 4521)">horizon Forecasting </text><text font-family="Univers,Univers_MSFontService,sans-serif" font-weight="400" font-size="92" transform="matrix(1 0 0 1 2489.49 4521)">(AF</text><text font-family="Univers,Univers_MSFontService,sans-serif" font-weight="400" font-size="92" transform="matrix(1 0 0 1 2637.3 4521)">-</text><text font-family="Univers,Univers_MSFontService,sans-serif" font-weight="400" font-size="92" transform="matrix(1 0 0 1 2667.67 4521)">L)</text></g></svg>