<svg width="3328" height="754" xmlns="http://www.w3.org/2000/svg" xmlns:xlink="http://www.w3.org/1999/xlink" xml:space="preserve" overflow="hidden"><g transform="translate(-947 -5521)"><path d="M1082 5535 4261 5535 4261 6140C4261 6206.82 4206.83 6261 4140 6261L961 6261 961 5656C961 5589.18 1015.18 5535 1082 5535Z" stroke="#D86ECC" stroke-width="27.5" stroke-miterlimit="8" fill="#F3E8FF" fill-rule="evenodd"/><text font-family="Orbitron Black,Orbitron Black_MSFontService,sans-serif" font-weight="900" font-size="110" transform="matrix(1 0 0 1 1041.73 5691)">State &amp; Reasoning</text><text font-family="Arial,Arial_MSFontService,sans-serif" font-weight="400" font-size="92" transform="matrix(1 0 0 1 1206.73 5821)">•</text><text font-family="Univers,Univers_MSFontService,sans-serif" font-weight="700" font-size="92" transform="matrix(1 0 0 1 1330.48 5821)">Procedure Step Recognition </text><text font-family="Univers,Univers_MSFontService,sans-serif" font-weight="400" font-size="92" transform="matrix(1 0 0 1 2578.29 5821)">(PSR)</text><text font-family="Arial,Arial_MSFontService,sans-serif" font-weight="400" font-size="92" transform="matrix(1 0 0 1 1206.73 5931)">•</text><text font-family="Univers,Univers_MSFontService,sans-serif" font-weight="700" font-size="92" transform="matrix(1 0 0 1 1330.48 5931)">Assembly State Recognition </text><text font-family="Univers,Univers_MSFontService,sans-serif" font-weight="400" font-size="92" transform="matrix(1 0 0 1 2593.19 5931)">(ASR)</text><text font-family="Arial,Arial_MSFontService,sans-serif" font-weight="400" font-size="92" transform="matrix(1 0 0 1 1206.73 6041)">•</text><text font-family="Univers,Univers_MSFontService,sans-serif" font-weight="700" font-size="92" transform="matrix(1 0 0 1 1330.48 6041)">Procedural Phase Recognition </text><text font-family="Univers,Univers_MSFontService,sans-serif" font-weight="400" font-size="92" transform="matrix(1 0 0 1 2659.65 6041)">(PPR)</text><text font-family="Univers,Univers_MSFontService,sans-serif" font-weight="400" font-size="92" transform="matrix(1 0 0 1 2893.97 6041)">: </text><text font-family="Univers,Univers_MSFontService,sans-serif" font-weight="400" font-size="59" transform="matrix(1 0 0 1 2944.39 6041)">Left (PPR</text><text font-family="Univers,Univers_MSFontService,sans-serif" font-weight="400" font-size="59" transform="matrix(1 0 0 1 3196.47 6041)">-</text><text font-family="Univers,Univers_MSFontService,sans-serif" font-weight="400" font-size="59" transform="matrix(1 0 0 1 3215.95 6041)">L), Right (PPR</text><text font-family="Univers,Univers_MSFontService,sans-serif" font-weight="400" font-size="59" transform="matrix(1 0 0 1 3596.94 6041)">-</text><text font-family="Univers,Univers_MSFontService,sans-serif" font-weight="400" font-size="59" transform="matrix(1 0 0 1 3616.42 6041)">R)</text><text font-family="Arial,Arial_MSFontService,sans-serif" font-weight="400" font-size="92" transform="matrix(1 0 0 1 1206.73 6151)">•</text><text font-family="Univers,Univers_MSFontService,sans-serif" font-weight="700" font-size="92" transform="matrix(1 0 0 1 1330.48 6151)">Anomaly Type Recognition </text><text font-family="Univers,Univers_MSFontService,sans-serif" font-weight="400" font-size="92" transform="matrix(1 0 0 1 2537.61 6151)">(ATR)</text><text font-family="Univers,Univers_MSFontService,sans-serif" font-weight="400" font-size="92" transform="matrix(1 0 0 1 2782.25 6151)">: </text><text font-family="Univers,Univers_MSFontService,sans-serif" font-weight="400" font-size="59" transform="matrix(1 0 0 1 2832.67 6151)">Left (</text><text font-family="Univers,Univers_MSFontService,sans-serif" font-weight="400" font-size="59" transform="matrix(1 0 0 1 2973.03 6151)">ATR</text><text font-family="Univers,Univers_MSFontService,sans-serif" font-weight="400" font-size="59" transform="matrix(1 0 0 1 3091.05 6151)">-</text><text font-family="Univers,Univers_MSFontService,sans-serif" font-weight="400" font-size="59" transform="matrix(1 0 0 1 3110.53 6151)">L</text><text font-family="Univers,Univers_MSFontService,sans-serif" font-weight="400" font-size="59" transform="matrix(1 0 0 1 3143.19 6151)">), Right (</text><text font-family="Univers,Univers_MSFontService,sans-serif" font-weight="400" font-size="59" transform="matrix(1 0 0 1 3379.8 6151)">ATR</text><text font-family="Univers,Univers_MSFontService,sans-serif" font-weight="400" font-size="59" transform="matrix(1 0 0 1 3497.82 6151)">-</text><text font-family="Univers,Univers_MSFontService,sans-serif" font-weight="400" font-size="59" transform="matrix(1 0 0 1 3517.3 6151)">R</text><text font-family="Univers,Univers_MSFontService,sans-serif" font-weight="400" font-size="59" transform="matrix(1 0 0 1 3556.83 6151)">)</text></g></svg>