<svg width="3328" height="754" xmlns="http://www.w3.org/2000/svg" xmlns:xlink="http://www.w3.org/1999/xlink" xml:space="preserve" overflow="hidden"><g transform="translate(-947 -1262)"><path d="M1082 1276 4261 1276 4261 1881C4261 1947.82 4206.83 2002 4140 2002L961 2002 961 1397C961 1330.18 1015.18 1276 1082 1276Z" stroke="#0070C0" stroke-width="27.5" stroke-miterlimit="8" fill="#E8F0FE" fill-rule="evenodd"/><text font-family="Orbitron Black,Orbitron Black_MSFontService,sans-serif" font-weight="900" font-size="110" transform="matrix(1 0 0 1 1060.06 1431)">Temporal Understanding</text><text font-family="Univers,Univers_MSFontService,sans-serif" font-weight="700" font-size="92" transform="matrix(1 0 0 1 1225.06 1578)">Temporal Action Segmentation </text><text font-family="Univers,Univers_MSFontService,sans-serif" font-weight="400" font-size="92" transform="matrix(1 0 0 1 2611.52 1578)">(TAS)</text><text font-family="Univers,Univers_MSFontService,sans-serif" font-weight="400" font-size="92" transform="matrix(1 0 0 1 2846.99 1578)"> </text><text font-family="Univers,Univers_MSFontService,sans-serif" font-weight="400" font-size="92" transform="matrix(1 0 0 1 2872.2 1578)"> </text><text font-family="Arial,Arial_MSFontService,sans-serif" font-weight="400" font-size="92" transform="matrix(1 0 0 1 1225.06 1688)">•</text><text font-family="Univers,Univers_MSFontService,sans-serif" font-weight="700" font-size="92" transform="matrix(1 0 0 1 1348.81 1688)">Step</text><text font-family="Univers,Univers_MSFontService,sans-serif" font-weight="700" font-size="92" transform="matrix(1 0 0 1 1552.77 1688)">-</text><text font-family="Univers,Univers_MSFontService,sans-serif" font-weight="700" font-size="92" transform="matrix(1 0 0 1 1583.14 1688)">level Segmentation</text><text font-family="Univers,Univers_MSFontService,sans-serif" font-weight="400" font-size="92" transform="matrix(1 0 0 1 2431.63 1688)"> </text><text font-family="Univers,Univers_MSFontService,sans-serif" font-weight="400" font-size="92" transform="matrix(1 0 0 1 2456.83 1688)">(TAS</text><text font-family="Univers,Univers_MSFontService,sans-serif" font-weight="400" font-size="92" transform="matrix(1 0 0 1 2661.94 1688)">-</text><text font-family="Univers,Univers_MSFontService,sans-serif" font-weight="400" font-size="92" transform="matrix(1 0 0 1 2692.3 1688)">S) </text><text font-family="Univers,Univers_MSFontService,sans-serif" font-weight="400" font-size="92" transform="matrix(1 0 0 1 2809.18 1688)"> </text><text font-family="Univers,Univers_MSFontService,sans-serif" font-weight="400" font-size="92" transform="matrix(1 0 0 1 2834.39 1688)"> </text><text font-family="Arial,Arial_MSFontService,sans-serif" font-weight="400" font-size="92" transform="matrix(1 0 0 1 1225.06 1798)">•</text><text font-family="Univers,Univers_MSFontService,sans-serif" font-weight="700" font-size="92" transform="matrix(1 0 0 1 1348.81 1798)">Bimanual Atomic Action Segmentation </text><text font-family="Univers,Univers_MSFontService,sans-serif" font-weight="400" font-size="92" transform="matrix(1 0 0 1 3076.16 1798)">(TAS</text><text font-family="Univers,Univers_MSFontService,sans-serif" font-weight="400" font-size="92" transform="matrix(1 0 0 1 3281.26 1798)">-</text><text font-family="Univers,Univers_MSFontService,sans-serif" font-weight="400" font-size="92" transform="matrix(1 0 0 1 3311.63 1798)">B)</text><text font-family="Univers,Univers_MSFontService,sans-serif" font-weight="400" font-size="92" transform="matrix(1 0 0 1 3403.29 1798)"> </text><text font-family="Arial,Arial_MSFontService,sans-serif" font-weight="400" font-size="59" transform="matrix(1 0 0 1 1390.06 1876)">•</text><text font-family="Univers,Univers_MSFontService,sans-serif" font-weight="400" font-size="59" transform="matrix(1 0 0 1 1513.81 1876)">Left Hand (TAS</text><text font-family="Univers,Univers_MSFontService,sans-serif" font-weight="400" font-size="59" transform="matrix(1 0 0 1 1930.32 1876)">-</text><text font-family="Univers,Univers_MSFontService,sans-serif" font-weight="400" font-size="59" transform="matrix(1 0 0 1 1949.8 1876)">BL)</text><text font-family="Univers,Univers_MSFontService,sans-serif" font-weight="400" font-size="59" transform="matrix(1 0 0 1 2041.47 1876)"> </text><text font-family="Arial,Arial_MSFontService,sans-serif" font-weight="400" font-size="59" transform="matrix(1 0 0 1 1390.06 1947)">•</text><text font-family="Univers,Univers_MSFontService,sans-serif" font-weight="400" font-size="59" transform="matrix(1 0 0 1 1513.81 1947)">Right Hand (TAS</text><text font-family="Univers,Univers_MSFontService,sans-serif" font-weight="400" font-size="59" transform="matrix(1 0 0 1 1973.86 1947)">-</text><text font-family="Univers,Univers_MSFontService,sans-serif" font-weight="400" font-size="59" transform="matrix(1 0 0 1 1993.34 1947)">BR)</text><text font-family="Univers,Univers_MSFontService,sans-serif" font-weight="400" font-size="59" transform="matrix(1 0 0 1 2091.89 1947)"> </text></g></svg>