<svg width="3328" height="754" xmlns="http://www.w3.org/2000/svg" xmlns:xlink="http://www.w3.org/1999/xlink" xml:space="preserve" overflow="hidden"><g transform="translate(-947 -2560)"><path d="M1082 2574 4261 2574 4261 3179C4261 3245.82 4206.83 3300 4140 3300L961 3300 961 2695C961 2628.18 1015.18 2574 1082 2574Z" stroke="#00B050" stroke-width="27.5" stroke-miterlimit="8" fill="#E6F4EA" fill-rule="evenodd"/><text font-family="Orbitron Black,Orbitron Black_MSFontService,sans-serif" font-weight="900" font-size="110" transform="matrix(1 0 0 1 1060.06 2729)">Cross</text><text font-family="Orbitron Black,Orbitron Black_MSFontService,sans-serif" font-weight="900" font-size="110" transform="matrix(1 0 0 1 1435.9 2729)">-</text><text font-family="Orbitron Black,Orbitron Black_MSFontService,sans-serif" font-weight="900" font-size="110" transform="matrix(1 0 0 1 1492.61 2729)">View Understanding</text><text font-family="Arial,Arial_MSFontService,sans-serif" font-weight="400" font-size="92" transform="matrix(1 0 0 1 1225.06 2876)">•</text><text font-family="Univers,Univers_MSFontService,sans-serif" font-weight="700" font-size="92" transform="matrix(1 0 0 1 1348.81 2876)">Cross</text><text font-family="Univers,Univers_MSFontService,sans-serif" font-weight="700" font-size="92" transform="matrix(1 0 0 1 1593.45 2876)">-</text><text font-family="Univers,Univers_MSFontService,sans-serif" font-weight="700" font-size="92" transform="matrix(1 0 0 1 1623.81 2876)">View Temporal Alignment </text><text font-family="Univers,Univers_MSFontService,sans-serif" font-weight="400" font-size="92" transform="matrix(1 0 0 1 2799.44 2876)">(CV</text><text font-family="Univers,Univers_MSFontService,sans-serif" font-weight="400" font-size="92" transform="matrix(1 0 0 1 2952.41 2876)">-</text><text font-family="Univers,Univers_MSFontService,sans-serif" font-weight="400" font-size="92" transform="matrix(1 0 0 1 2982.77 2876)">TA)</text><text font-family="Arial,Arial_MSFontService,sans-serif" font-weight="400" font-size="92" transform="matrix(1 0 0 1 1225.06 2986)">•</text><text font-family="Univers,Univers_MSFontService,sans-serif" font-weight="700" font-size="92" transform="matrix(1 0 0 1 1348.81 2986)">Cross</text><text font-family="Univers,Univers_MSFontService,sans-serif" font-weight="700" font-size="92" transform="matrix(1 0 0 1 1593.45 2986)">-</text><text font-family="Univers,Univers_MSFontService,sans-serif" font-weight="700" font-size="92" transform="matrix(1 0 0 1 1623.81 2986)">View Semantic Matching </text><text font-family="Univers,Univers_MSFontService,sans-serif" font-weight="400" font-size="92" transform="matrix(1 0 0 1 2748.45 2986)">(CV</text><text font-family="Univers,Univers_MSFontService,sans-serif" font-weight="400" font-size="92" transform="matrix(1 0 0 1 2901.42 2986)">-</text><text font-family="Univers,Univers_MSFontService,sans-serif" font-weight="400" font-size="92" transform="matrix(1 0 0 1 2931.78 2986)">SM)</text><text font-family="Arial,Arial_MSFontService,sans-serif" font-weight="400" font-size="92" transform="matrix(1 0 0 1 1390.06 3096)">•</text><text font-family="Univers,Univers_MSFontService,sans-serif" font-weight="400" font-size="92" transform="matrix(1 0 0 1 1513.81 3096)">Retrieval (CV</text><text font-family="Univers,Univers_MSFontService,sans-serif" font-weight="400" font-size="92" transform="matrix(1 0 0 1 2073.55 3096)">-</text><text font-family="Univers,Univers_MSFontService,sans-serif" font-weight="400" font-size="92" transform="matrix(1 0 0 1 2103.92 3096)">SMR)</text><text font-family="Arial,Arial_MSFontService,sans-serif" font-weight="400" font-size="92" transform="matrix(1 0 0 1 1390.06 3206)">•</text><text font-family="Univers,Univers_MSFontService,sans-serif" font-weight="400" font-size="92" transform="matrix(1 0 0 1 1513.81 3206)">Classification (CV</text><text font-family="Univers,Univers_MSFontService,sans-serif" font-weight="400" font-size="92" transform="matrix(1 0 0 1 2266.63 3206)">-</text><text font-family="Univers,Univers_MSFontService,sans-serif" font-weight="400" font-size="92" transform="matrix(1 0 0 1 2296.99 3206)">SMC)</text></g></svg>